<?xml version="1.0" encoding="utf-8"?>
<!-- Generator: Adobe Illustrator 21.1.0, SVG Export Plug-In . SVG Version: 6.00 Build 0)  -->
<svg version="1.1" xmlns="http://www.w3.org/2000/svg" xmlns:xlink="http://www.w3.org/1999/xlink" x="0px" y="0px"
	 viewBox="0 0 157 157" style="enable-background:new 0 0 157 157;" xml:space="preserve">
<style type="text/css">
	.st0{display:none;}
	.st1{fill:#E8453C;}
	.st2{fill:#FABB2D;}
	.st3{fill:#4688F1;}
	.st4{fill:#3BA657;}
	.st5{fill:none;stroke:#000000;stroke-width:6.7;stroke-miterlimit:10;}
	.st6{fill:none;stroke:#4688F1;stroke-width:6.7;stroke-miterlimit:10;}
	.st7{fill:none;stroke:#E8453C;stroke-width:6.7;stroke-miterlimit:10;}
	.st8{fill:none;stroke:#FABB2D;stroke-width:6.7;stroke-miterlimit:10;}
	.st9{fill:none;stroke:#3BA657;stroke-width:6.7;stroke-miterlimit:10;}
	.st10{fill:none;stroke:#3BA657;stroke-width:10;stroke-miterlimit:10;}
	.st11{fill:none;stroke:#4688F1;stroke-width:7;stroke-miterlimit:10;}
	.st12{fill:none;stroke:#1D1D1B;stroke-width:10;stroke-miterlimit:10;}
	.st13{fill:none;stroke:#FFFFFF;stroke-width:6.7;stroke-miterlimit:10;}
	.st14{fill:#FFFFFF;}
</style>
<g id="Lager_2" class="st0">
</g>
<g id="Lager_3" class="st0">
</g>
<g id="Lager_1">
	<g>
		<g>
			<path d="M33.3,52.9c1.7-0.1,3,0.3,3.9,1.4c0.9,1,1.2,2.4,1,4c-1.4,0.3-2,0.4-3.4,0.6c0.5-3-0.2-4.4-2.3-4.3
				c-1,0.1-1.8,0.4-2.5,1.2c-0.7,0.7-1.2,1.6-1.4,2.7c-0.4,1.9,0.5,3.4,2.6,4.8c0.9,0.6,1.3,0.9,2.2,1.5c1.4,1,2.4,2,3.1,3
				c0.7,1,1,2.3,0.9,3.8c-0.1,1.9-0.8,3.6-2.3,4.9c-1.4,1.3-3.2,1.9-5.2,1.8c-2.3,0-4.1-0.6-5.4-1.8c-1.3-1.2-1.9-2.8-1.8-4.8
				c1.4-0.2,2.1-0.3,3.5-0.5c-0.1,1.6,0.2,2.9,0.8,3.9c0.6,1,1.7,1.5,3.2,1.5c1.2,0,2.2-0.3,2.9-1.1c0.7-0.7,1.1-1.7,1.2-2.9
				c0-1-0.2-1.9-0.7-2.7c-0.5-0.8-1.4-1.6-2.7-2.4c-1-0.7-1.5-1-2.5-1.7c-2.4-1.6-3.4-3.6-2.9-6.2c0.3-1.7,1.3-3.2,2.7-4.5
				C29.8,53.8,31.4,53,33.3,52.9z"/>
			<path d="M53.6,52c2.9-0.1,5.1,1,6.9,3.4c1.8,2.4,2.7,5.7,2.6,9.8c-0.1,4-1.3,7.2-3.5,9.6c-2.2,2.4-4.7,3.6-7.8,3.5
				c-3.1,0-5.7-1.2-7.8-3.5c-2.1-2.3-3.1-5.5-2.8-9.5c0.3-3.9,1.8-7.1,4.3-9.6C48.1,53.4,50.8,52.1,53.6,52z M52.9,54
				c-2,0.1-3.8,1.1-5.3,3.1c-1.5,2-2.5,4.6-2.7,7.8c-0.3,3.5,0.4,6.3,1.9,8.5c1.5,2.1,3.4,3.2,5.6,3.2c2.1,0,3.8-0.9,5.2-2.8
				c1.4-1.9,2.1-4.5,2.2-7.9c0.1-3.6-0.5-6.5-1.7-8.7S55,53.9,52.9,54z M49.5,49.7c0.2-1.3,0.3-1.9,0.6-3.1c1.2-0.1,1.8-0.1,3-0.1
				c-0.2,1.2-0.3,1.9-0.5,3.1C51.3,49.7,50.7,49.7,49.5,49.7z M55.2,49.5c0.2-1.3,0.3-1.9,0.5-3.2c1.2,0,1.8-0.1,3-0.1
				c-0.2,1.3-0.3,1.9-0.4,3.2C57,49.5,56.4,49.5,55.2,49.5z"/>
			<path d="M68.2,78.1c0-10,0-15.6,0.5-25.9c1.2,0,1.7,0,2.9,0c-0.2,5.1-0.2,7.7-0.3,12.8c4-5.2,5.9-7.8,9.6-12.9c1,0,1.5,0,2.5,0
				c-2.9,4.1-4.4,6.1-7.5,10.3c3.4,6.4,5.1,9.6,8.7,15.7c-1.5,0-2.2,0-3.6,0c-2.9-5.1-4.3-7.7-7.1-13c-1,1.3-1.5,1.9-2.5,3.2
				c0,3.9,0,5.9,0,9.7C70,78.1,69.4,78.1,68.2,78.1z"/>
			<path d="M99.9,67.7c-0.6,0-1,0-1.6,0c0.2,4.2,0.3,6.3,0.3,10.3c-1.2,0-1.8,0-3,0c0-10-0.5-15.5-1.2-25.8c2.3,0,3.4,0.1,5.6,0.1
				c2.1,0.1,3.9,0.7,5.4,1.9c1.5,1.2,2.4,3,2.6,5.4c0.3,2.5-0.4,4.5-2.1,5.9C104.2,67.1,102.2,67.8,99.9,67.7z M99.4,54.3
				c-0.8,0-1.3,0-2.1,0c0.4,4.6,0.5,6.9,0.8,11.5c0.7,0,1,0,1.6,0c1.7,0,3-0.5,3.8-1.6c0.9-1.1,1.2-2.5,1-4.3
				c-0.2-1.8-0.7-3.2-1.7-4.1C102,54.9,100.8,54.3,99.4,54.3z"/>
			<path d="M117.9,54.4c5.2,9.6,7.6,14.5,11.4,23.6c-1.3,0-2,0-3.3,0c-1.2-2.9-1.8-4.4-3.2-7.4c-3.5,0-5.2,0-8.8,0
				c-1,3-1.6,4.5-2.8,7.5c-0.8,0-1.3,0-2.1,0c3.8-9.3,5.4-14.4,7.3-23.7c-0.7-0.2-1.4-0.7-2-1.3c-0.6-0.7-0.9-1.4-1.1-2.3
				c-0.2-1-0.1-1.9,0.4-2.5c0.5-0.7,1.1-1,1.9-0.9s1.6,0.4,2.4,1.2c0.7,0.7,1.2,1.6,1.4,2.6c0.2,0.8,0.1,1.6-0.2,2.2
				C119,53.9,118.5,54.3,117.9,54.4z M117.3,59.2c-0.9,3.8-1.4,5.7-2.7,9.5c3,0,4.5,0,7.3,0.1C120.2,64.9,119.3,63,117.3,59.2z
				 M114.8,49.2c-0.3,0.4-0.3,0.9-0.2,1.6c0.1,0.6,0.4,1.2,0.8,1.6c0.4,0.4,0.9,0.7,1.4,0.7c0.5,0,0.9-0.2,1.2-0.6
				c0.3-0.4,0.3-0.9,0.2-1.6c-0.1-0.6-0.4-1.2-0.8-1.6c-0.4-0.4-0.9-0.7-1.4-0.7S115,48.8,114.8,49.2z"/>
			<path d="M36.8,109.2c-1.1-0.1-1.6-0.1-2.7-0.2c-0.4-1.4-0.6-2.2-1-3.6c-0.7,2.7-2.3,3.8-5.1,3.6c-2.4-0.2-4.9-1.5-7.4-3.9
				c-2.5-2.4-4.4-5.3-5.2-9c-0.5-1.9-0.5-3.7-0.1-5.3c0.4-1.6,1-2.9,1.9-3.9c0.9-1,2-1.8,3.3-2.3c1.2-0.6,2.5-0.8,3.8-0.8
				c2.3,0,4.2,0.6,5.8,1.9c1.6,1.2,2.5,2.9,2.8,4.9c-1.4,0.1-2,0.2-3.4,0.4c-0.3-1.5-0.9-2.8-1.8-3.8c-1-1-2.2-1.5-3.7-1.5
				c-2.1,0-3.8,0.8-4.9,2.5c-1.2,1.7-1.5,4-0.9,7c0.7,3.2,2.2,5.8,4.3,7.9c2.1,2.1,4.2,3.2,6.3,3.4c2,0.2,3.3-0.4,4.1-1.7
				c-0.6-2.5-0.9-3.8-1.4-6.4c1.1-0.1,1.7-0.2,2.8-0.3C35.1,102.6,35.5,104.8,36.8,109.2z"/>
			<path d="M48.6,83.9c3.1,0,5.7,1.3,7.8,3.8c2.1,2.5,3.3,5.8,3.5,9.9c0.2,4-0.5,7.2-2.2,9.5c-1.7,2.4-3.9,3.4-6.6,3.3
				c-2.8-0.1-5.4-1.4-7.9-3.8c-2.5-2.4-4.2-5.6-4.7-9.6c-0.5-3.9,0.3-7,2.4-9.4C42.9,85.1,45.6,83.9,48.6,83.9z M48.2,85.9
				c-2.1,0-3.8,0.9-5.1,2.9c-1.2,1.9-1.7,4.5-1.3,7.7c0.4,3.5,1.7,6.4,3.5,8.6c1.8,2.2,3.8,3.4,5.8,3.4c2,0.1,3.4-0.8,4.4-2.7
				c1-1.9,1.4-4.5,1.2-7.8c-0.3-3.6-1.1-6.5-2.7-8.8C52.4,87.1,50.5,85.9,48.2,85.9z"/>
			<path d="M74.3,84.1c3.1,0,5.5,1.2,7.6,3.7c2.1,2.5,3,5.8,2.9,9.9c-0.1,4-1.2,7.2-3.3,9.7c-2.1,2.5-4.4,3.7-7.1,3.6
				c-2.8,0-5.2-1.2-7.4-3.7c-2.2-2.4-3.5-5.7-3.7-9.8c-0.2-4,0.8-7.2,3-9.7C68.6,85.3,71.3,84.1,74.3,84.1z M73.8,86.1
				c-2.1,0-3.8,1-5.2,3c-1.3,2-1.9,4.6-1.8,7.9c0.1,3.6,1,6.5,2.6,8.7c1.5,2.2,3.3,3.3,5.4,3.3c1.9,0,3.5-1,4.8-2.9
				c1.3-2,1.9-4.6,2-7.9c0-3.6-0.7-6.5-2.1-8.8C77.9,87.3,76.1,86.1,73.8,86.1z"/>
			<path d="M105.6,110c-1.1,0-1.6,0.1-2.7,0.1c0.2-1.5,0.3-2.2,0.4-3.8c-1.7,2.9-3.9,4.4-6.7,4.4c-2.4,0.1-4.3-1-6-3.4
				c-1.6-2.3-2.4-5.6-2.3-9.6c0.1-2.1,0.5-4.1,1.2-5.9c0.7-1.8,1.6-3.2,2.7-4.3c1.1-1.1,2.3-2,3.6-2.6c1.3-0.6,2.6-0.9,3.8-0.9
				c2.2,0,4,0.6,5.5,1.8c1.4,1.2,2.2,2.9,2.2,5c-1.4,0.2-2.1,0.3-3.5,0.5c0-1.6-0.4-2.9-1.2-3.8c-0.8-1-1.9-1.5-3.4-1.5
				c-2,0-3.8,1-5.2,2.8c-1.4,1.9-2.2,4.4-2.4,7.7c-0.2,3.5,0.5,6.3,1.9,8.3c1.4,2.1,3.1,3.1,5.1,3c2-0.1,3.6-0.8,4.9-2.3
				c0.3-2.6,0.4-4,0.7-6.6c1.2-0.2,1.8-0.3,3-0.5C106.5,103.2,106.2,105.5,105.6,110z"/>
			<path d="M111.2,109.7c1.9-9.8,2.6-15.2,3.1-25.3c1.2,0,1.8,0,3.1,0c-0.4,9.2-1.1,14.1-2.9,23.1c3.4-0.2,5.1-0.3,8.6-0.5
				c-0.2,0.8-0.3,1.3-0.5,2.1C118,109.3,115.7,109.5,111.2,109.7z"/>
			<path d="M126.7,108.7c2.9-9.6,3.9-14.6,4.5-24.5c4.9,0,7.4-0.1,12-0.2c-0.1,0.8-0.1,1.2-0.2,2c-3.5,0.1-5.3,0.2-8.9,0.2
				c-0.3,3.4-0.5,5.1-1.1,8.5c2.9-0.1,4.4-0.2,7.2-0.4c-0.2,0.8-0.2,1.1-0.4,1.9c-2.8,0.2-4.3,0.2-7.2,0.4c-0.8,3.9-1.3,5.9-2.5,9.7
				c3.4-0.3,5.2-0.4,8.6-0.7c-0.3,0.8-0.4,1.2-0.8,2C133.5,108.1,131.2,108.3,126.7,108.7z"/>
		</g>
	</g>
</g>
</svg>
